# xmcd CD database file
# Copyright (C) 1993-1996 Ti Kan
#
# Track frame offsets:
#	150
#	17398
#	34670
#	46475
#	61372
#	95890
#	108913
#	122080
#	138917
#	153740
#	169123
#
# Disc length: 2509 seconds
#
# Revision: 1
# Processed by: cddbd v1.4b41PL1 Copyright (c) Steve Scherf et al.
# Submitted via: CDValet v3.01 - Copyright (c) 1997 Greg Leichner
#
DISCID=8f09cb0b
DTITLE=Celinda Pink - Unchained
DYEAR=1900
DGENRE=
TTITLE0=I've Changed Since I've Been Unchained
TTITLE1=Oh No
TTITLE2=You Better Quit It
TTITLE3=Don't Deceive Me
TTITLE4=It's A Man Thang
TTITLE5=Sneakin' Up Your Backdoor
TTITLE6=Would You Consider
TTITLE7=Me And Bobby McGee
TTITLE8=Hound Dog
TTITLE9=Hurt Attack
TTITLE10=Found Me A Backdoor Man
EXTD=
EXTT0=
EXTT1=
EXTT2=
EXTT3=
EXTT4=
EXTT5=
EXTT6=
EXTT7=
EXTT8=
EXTT9=
EXTT10=
PLAYORDER=
